<?xml version="1.0" encoding="UTF-8"?>
<!-- Generator: visioncortex VTracer 0.1.0 -->
<svg version="1.1" xmlns="http://www.w3.org/2000/svg" width="1260" height="1260">
<path d="M0,0 L495,0 L517,1 L537,4 L561,10 L578,16 L589,21 L603,28 L619,37 L619,39 L624,41 L640,53 L646,58 L646,60 L650,62 L662,74 L662,76 L664,76 L675,90 L683,101 L686,106 L686,108 L688,108 L696,123 L701,133 L709,152 L715,172 L719,192 L721,205 L722,229 L722,720 L721,744 L718,764 L712,788 L706,805 L701,816 L694,830 L688,840 L682,850 L680,850 L678,855 L670,865 L664,873 L662,873 L660,877 L648,889 L646,889 L646,891 L636,899 L625,907 L623,907 L623,909 L609,918 L599,923 L589,928 L570,936 L550,942 L530,946 L517,948 L495,949 L0,949 L-22,948 L-42,945 L-66,939 L-83,933 L-94,928 L-108,921 L-118,915 L-128,909 L-128,907 L-133,905 L-140,900 L-140,898 L-145,896 L-151,891 L-151,889 L-155,887 L-167,875 L-167,873 L-169,873 L-180,859 L-188,848 L-191,843 L-191,841 L-193,841 L-201,826 L-206,816 L-214,797 L-220,778 L-224,757 L-226,744 L-227,720 L-227,229 L-226,205 L-223,185 L-219,169 L-214,152 L-208,137 L-200,121 L-193,108 L-191,108 L-189,103 L-182,92 L-171,79 L-169,76 L-167,76 L-165,72 L-153,60 L-151,60 L-151,58 L-137,47 L-126,39 L-108,28 L-94,21 L-75,13 L-56,7 L-35,3 L-22,1 Z " fill="#000000" transform="translate(383,156)"/>
</svg>
