<?xml version="1.0" encoding="UTF-8"?>
<!-- Generator: visioncortex VTracer 0.1.0 -->
<svg version="1.1" xmlns="http://www.w3.org/2000/svg" width="700" height="520">
<path d="M0,0 L5,1 L6,2 L10,35 L15,59 L24,86 L32,102 L36,109 L61,115 L81,122 L99,130 L101,132 L100,138 L90,157 L86,164 L100,174 L125,189 L138,200 L149,211 L161,227 L171,245 L181,268 L189,294 L196,328 L199,350 L199,357 L197,359 L-365,359 L-367,357 L-366,350 L-353,320 L-341,297 L-329,278 L-318,263 L-309,252 L-300,242 L-284,226 L-273,217 L-255,204 L-243,197 L-242,170 L-239,148 L-233,127 L-225,109 L-216,94 L-207,83 L-196,71 L-184,61 L-166,49 L-147,39 L-124,30 L-114,27 L-109,28 L-106,36 L-101,61 L-100,72 L-100,91 L-103,112 L-108,129 L-114,144 L-95,130 L-82,118 L-76,113 L-69,105 L-59,94 L-44,74 L-34,59 L-19,34 L-5,8 Z M-104,186 Z M-101,193 Z M-98,200 Z " fill="#000000" transform="translate(455,83)"/>
</svg>
