<?xml version="1.0" encoding="UTF-8"?>
<svg xmlns="http://www.w3.org/2000/svg" xmlns:inkstitch="http://inkstitch.org/namespace" width="90mm" height="60mm" viewBox="0 0 90 60">
<metadata><inkstitch:min_stitch_len_mm>0.3</inkstitch:min_stitch_len_mm><inkstitch:collapse_len_mm>3</inkstitch:collapse_len_mm><inkstitch:min_satin_stroke_width_mm>1.5</inkstitch:min_satin_stroke_width_mm><inkstitch:inkstitch_svg_version>4</inkstitch:inkstitch_svg_version></metadata>
<path id="blue-disc" d="M28 13A17 17 0 1 1 27.99 13Z" fill="#2563eb" fill-rule="evenodd" stroke="none" inkstitch:fill_method="tatami_fill" inkstitch:angle="0.0" inkstitch:row_spacing_mm="0.45" inkstitch:max_stitch_length_mm="4.0" inkstitch:fill_underlay="true" inkstitch:pull_compensation_mm="0.15" inkstitch:trim_after="true" />
<path id="red-swoosh-v3-0-0" d="M17.543 38.705L18.734 40.584L20.324 41.889L24.038 43.78L27.942 45.256L31.992 46.285L34.091 46.609L38.26 46.875L42.426 46.676L44.529 46.395L48.582 45.467L52.509 44.146L56.325 42.459L59.906 40.327L63.242 37.936L66.422 35.326L69.358 32.426L73.127 27.652L73.653 25.529M18.457 37.295L20.589 37.573L22.323 38.424L25.656 40.121L29.144 41.441L32.756 42.359L34.572 42.638L38.291 42.876L42.02 42.697L43.844 42.454L47.496 41.617L51.062 40.417L54.49 38.905L57.715 36.98L60.807 34.763L63.745 32.354L66.445 29.685L70.379 25.426L72.347 24.471M17.477 38.805L18.523 37.195M44.549 46.514L43.823 42.336M73.746 25.604L72.254 24.396" fill="none" stroke="#ef4444" inkstitch:satin_column="true" inkstitch:zigzag_spacing_mm="0.42" inkstitch:pull_compensation_mm="0.15" inkstitch:center_walk_underlay="true" inkstitch:max_stitch_length_mm="6.5" />
<path id="green-line" d="M18 49C35 54 60 53 76 42" fill="none" stroke="#16a34a" stroke-width="0.3" inkstitch:stroke_method="running_stitch" inkstitch:running_stitch_length_mm="2.2" inkstitch:bean_stitch_repeats="1" />
</svg>