<?xml version="1.0" encoding="UTF-8"?>
<svg xmlns="http://www.w3.org/2000/svg" xmlns:inkstitch="http://inkstitch.org/namespace" width="90mm" height="60mm" viewBox="0 0 90 60">
<metadata><inkstitch:min_stitch_len_mm>0.3</inkstitch:min_stitch_len_mm><inkstitch:collapse_len_mm>3</inkstitch:collapse_len_mm><inkstitch:min_satin_stroke_width_mm>1.5</inkstitch:min_satin_stroke_width_mm><inkstitch:inkstitch_svg_version>4</inkstitch:inkstitch_svg_version></metadata>
<path id="swoosh-v3-0-0" d="M9.415 34.821L10.381 36.876L11.883 38.286L13.578 39.424L15.418 40.384L17.294 41.356L19.151 42.204L21.118 42.899L23.101 43.592L25.069 44.134L27.121 44.544L29.173 44.946L31.2 45.184L33.289 45.298L35.371 45.403L37.412 45.354L39.485 45.171L41.56 44.98L43.578 44.679L45.581 44.212L47.617 43.733L49.594 43.226L51.502 42.496L53.447 41.747L55.349 41.012L57.177 40.117L58.969 39.143L60.777 38.157L62.562 37.181L64.22 36.001L65.874 34.814L67.523 33.628M10.585 33.179L12.813 33.399L14.504 34.264L16.056 35.313L17.697 36.16L19.3 36.995L21.002 37.775L22.734 38.379L24.451 38.985L26.254 39.483L28.048 39.834L29.843 40.193L31.7 40.411L33.526 40.503L35.36 40.603L37.23 40.558L39.063 40.389L40.892 40.227L42.743 39.952L44.558 39.522L46.339 39.106L48.158 38.646L49.91 37.967L51.624 37.307L53.381 36.634L55.067 35.806L56.718 34.904L58.354 34.013L60.012 33.114L61.545 32.016L63.076 30.914L64.611 29.813M9.345 34.919L10.655 33.081M37.416 45.474L37.225 40.438M67.596 33.723L64.538 29.717" fill="none" stroke="#171717" inkstitch:satin_column="true" inkstitch:zigzag_spacing_mm="0.42" inkstitch:pull_compensation_mm="0.15" inkstitch:center_walk_underlay="true" inkstitch:max_stitch_length_mm="6.5" />
<path id="swoosh-v3-0-1" d="M67.523 33.628L69.17 32.441L70.673 31.076L72.174 29.709L73.656 28.359L75.151 26.993L76.542 25.525L77.885 24.01L79.198 22.527L80.289 20.874L80.755 18.668M64.611 29.813L66.148 28.712L67.544 27.436L68.941 26.161L70.358 24.871L71.761 23.595L73.062 22.219L74.318 20.798L75.604 19.345L77.112 18.062L79.245 17.332M67.596 33.723L64.538 29.717M75.236 27.078L71.676 23.51M80.845 18.748L79.155 17.252" fill="none" stroke="#171717" inkstitch:satin_column="true" inkstitch:zigzag_spacing_mm="0.42" inkstitch:pull_compensation_mm="0.15" inkstitch:center_walk_underlay="true" inkstitch:max_stitch_length_mm="6.5" />
</svg>